# xmcd
#
# Track frame offsets:
#	150
#	18024
#	32867
#	43337
#	58100
#	70286
#	85003
#	94787
#	109952
#	125073
#
# Disc length: 1833 seconds
#
# Revision: 1
# Processed by: cddbd v1.5.2PL0 Copyright (c) Steve Scherf et al.
# Submitted via: audiograbber 1.83.01
#
DISCID=8807270a
DTITLE=Linda Ronstadt - Blue Bayou And Other Hits
DYEAR=2007
DGENRE=Country
TTITLE0=Blue Bayou
TTITLE1=Be My Baby
TTITLE2=In My Room
TTITLE3=Hurt So Bad
TTITLE4=Tell Him
TTITLE5=Angel Baby
TTITLE6=Dedicated To The One I Love
TTITLE7=Just One Look
TTITLE8=Ooh Baby Baby
TTITLE9=Heat Wave
EXTD=
EXTT0=
EXTT1=
EXTT2=
EXTT3=
EXTT4=
EXTT5=
EXTT6=
EXTT7=
EXTT8=
EXTT9=
PLAYORDER=
